<svg width="220" height="220" viewBox="0 0 220 220" fill="none" xmlns="http://www.w3.org/2000/svg">
  <defs>
    <linearGradient id="gold" x1="65" y1="38" x2="155" y2="188" gradientUnits="userSpaceOnUse">
      <stop offset="0%" stop-color="#F0D9A0"/>
      <stop offset="48%" stop-color="#D6AA59"/>
      <stop offset="100%" stop-color="#A9762F"/>
    </linearGradient>
  </defs>

  <g stroke="url(#gold)" stroke-linecap="round" stroke-linejoin="round">
    <path
      d="M110 188
         C82 176 58 154 50 124
         C43 96 52 70 74 52
         C88 41 101 38 110 52
         C119 38 132 41 146 52
         C168 70 177 96 170 124
         C162 154 138 176 110 188Z"
      stroke-width="6"
    />

    <path d="M86 178 C94 190 126 190 134 178" stroke-width="5" />

    <path d="M110 188 V52" stroke-width="3.5" />
    <path d="M110 188 C101 146 96 96 98 49" stroke-width="3" />
    <path d="M110 188 C119 146 124 96 122 49" stroke-width="3" />

    <path d="M110 186 C92 145 78 95 74 52" stroke-width="2.8" />
    <path d="M110 186 C128 145 142 95 146 52" stroke-width="2.8" />

    <path d="M110 184 C82 148 58 103 50 124" stroke-width="2.4" opacity="0.65" />
    <path d="M110 184 C138 148 162 103 170 124" stroke-width="2.4" opacity="0.65" />
  </g>
</svg>