<svg width="320" height="320" viewBox="0 0 320 320" fill="none" xmlns="http://www.w3.org/2000/svg">
  <defs>
    <linearGradient id="goldStroke" x1="160" y1="36" x2="160" y2="286" gradientUnits="userSpaceOnUse">
      <stop offset="0%" stop-color="#F3D9A6"/>
      <stop offset="45%" stop-color="#D8AE68"/>
      <stop offset="100%" stop-color="#B8863B"/>
    </linearGradient>
  </defs>

  <!-- contour principal -->
  <path
    d="M160 48
       C147 50 133 56 119 66
       C103 77 89 92 78 111
       C66 131 60 152 60 173
       C60 194 66 214 79 230
       C92 246 111 258 135 265
       H185
       C209 258 228 246 241 230
       C254 214 260 194 260 173
       C260 152 254 131 242 111
       C231 92 217 77 201 66
       C187 56 173 50 160 48Z"
    stroke="url(#goldStroke)"
    stroke-width="8"
    stroke-linecap="round"
    stroke-linejoin="round"
  />

  <!-- base -->
  <path
    d="M144 265
       C147 276 153 284 160 288
       C167 284 173 276 176 265"
    stroke="url(#goldStroke)"
    stroke-width="8"
    stroke-linecap="round"
    stroke-linejoin="round"
  />

  <!-- nervures -->
  <path d="M160 58 L160 262" stroke="url(#goldStroke)" stroke-width="4.4" stroke-linecap="round"/>
  <path d="M148 60 C148 102 147 170 144 260" stroke="url(#goldStroke)" stroke-width="3.7" stroke-linecap="round"/>
  <path d="M172 60 C172 102 173 170 176 260" stroke="url(#goldStroke)" stroke-width="3.7" stroke-linecap="round"/>

  <path d="M136 64 C134 106 131 176 128 256" stroke="url(#goldStroke)" stroke-width="3.3" stroke-linecap="round"/>
  <path d="M184 64 C186 106 189 176 192 256" stroke="url(#goldStroke)" stroke-width="3.3" stroke-linecap="round"/>

  <path d="M123 72 C118 113 112 180 108 248" stroke="url(#goldStroke)" stroke-width="3.0" stroke-linecap="round"/>
  <path d="M197 72 C202 113 208 180 212 248" stroke="url(#goldStroke)" stroke-width="3.0" stroke-linecap="round"/>

  <path d="M110 84 C100 123 93 185 88 238" stroke="url(#goldStroke)" stroke-width="2.8" stroke-linecap="round"/>
  <path d="M210 84 C220 123 227 185 232 238" stroke="url(#goldStroke)" stroke-width="2.8" stroke-linecap="round"/>

  <path d="M97 100 C84 137 77 189 72 224" stroke="url(#goldStroke)" stroke-width="2.6" stroke-linecap="round"/>
  <path d="M223 100 C236 137 243 189 248 224" stroke="url(#goldStroke)" stroke-width="2.6" stroke-linecap="round"/>
</svg>