<svg width="260" height="260" viewBox="0 0 260 260" fill="none" xmlns="http://www.w3.org/2000/svg">
  <defs>
    <linearGradient id="gold" x1="55" y1="36" x2="205" y2="218" gradientUnits="userSpaceOnUse">
      <stop offset="0%" stop-color="#F4DA9A"/>
      <stop offset="42%" stop-color="#C99738"/>
      <stop offset="100%" stop-color="#A56F23"/>
    </linearGradient>

    <radialGradient id="sapphire" cx="0" cy="0" r="1" gradientUnits="userSpaceOnUse" gradientTransform="translate(124 158) rotate(55) scale(34)">
      <stop offset="0%" stop-color="#FFFFFF"/>
      <stop offset="12%" stop-color="#89B5FF"/>
      <stop offset="42%" stop-color="#1F58D6"/>
      <stop offset="78%" stop-color="#082B8A"/>
      <stop offset="100%" stop-color="#02164F"/>
    </radialGradient>

    <filter id="softShadow" x="0" y="0" width="260" height="260" filterUnits="userSpaceOnUse">
      <feDropShadow dx="0" dy="5" stdDeviation="5" flood-color="#6E4B1D" flood-opacity="0.16"/>
    </filter>
  </defs>

  <g filter="url(#softShadow)" stroke="url(#gold)" stroke-linecap="round" stroke-linejoin="round">
    <!-- Grande coquille supérieure ouverte -->
    <path
      d="M130 44
         C117 46 109 61 105 78
         C95 63 82 58 70 66
         C59 73 56 87 58 101
         C45 98 35 106 32 119
         C28 134 36 146 49 154
         C60 161 76 164 92 165
         C105 166 117 163 130 154
         C143 163 155 166 168 165
         C184 164 200 161 211 154
         C224 146 232 134 228 119
         C225 106 215 98 202 101
         C204 87 201 73 190 66
         C178 58 165 63 155 78
         C151 61 143 46 130 44Z"
      stroke-width="5"
      fill="none"
    />

    <!-- Bord festonné haut -->
    <path d="M58 101 C68 91 79 89 88 94" stroke-width="2.2"/>
    <path d="M70 66 C82 76 91 85 98 99" stroke-width="2.2"/>
    <path d="M105 78 C112 93 119 119 124 151" stroke-width="2.2"/>
    <path d="M130 44 C130 72 130 112 130 153" stroke-width="2.8"/>
    <path d="M155 78 C148 93 141 119 136 151" stroke-width="2.2"/>
    <path d="M190 66 C178 76 169 85 162 99" stroke-width="2.2"/>
    <path d="M202 101 C192 91 181 89 172 94" stroke-width="2.2"/>

    <!-- Nervures rayonnantes vers la perle -->
    <path d="M43 135 C70 143 96 151 130 166" stroke-width="1.8" opacity="0.82"/>
    <path d="M57 105 C79 124 101 145 130 166" stroke-width="1.8" opacity="0.82"/>
    <path d="M82 72 C96 103 112 136 130 166" stroke-width="1.8" opacity="0.82"/>
    <path d="M110 63 C116 96 123 132 130 166" stroke-width="1.8" opacity="0.82"/>
    <path d="M150 63 C144 96 137 132 130 166" stroke-width="1.8" opacity="0.82"/>
    <path d="M178 72 C164 103 148 136 130 166" stroke-width="1.8" opacity="0.82"/>
    <path d="M203 105 C181 124 159 145 130 166" stroke-width="1.8" opacity="0.82"/>
    <path d="M217 135 C190 143 164 151 130 166" stroke-width="1.8" opacity="0.82"/>

    <!-- Coquille inférieure -->
    <path
      d="M45 171
         C64 157 92 163 111 175
         C119 180 124 183 130 184
         C136 183 141 180 149 175
         C168 163 196 157 215 171
         C199 186 177 193 154 193
         C144 193 136 190 130 185
         C124 190 116 193 106 193
         C83 193 61 186 45 171Z"
      stroke-width="4"
      fill="none"
    />

    <!-- Nervures inférieures -->
    <path d="M49 171 C73 174 96 177 120 182" stroke-width="1.8" opacity="0.8"/>
    <path d="M211 171 C187 174 164 177 140 182" stroke-width="1.8" opacity="0.8"/>
    <path d="M72 184 C91 184 108 184 124 183" stroke-width="1.6" opacity="0.7"/>
    <path d="M188 184 C169 184 152 184 136 183" stroke-width="1.6" opacity="0.7"/>

    <!-- Petite base centrale -->
    <path
      d="M118 194
         C121 207 126 216 130 220
         C134 216 139 207 142 194"
      stroke-width="4"
      fill="none"
    />
  </g>

  <!-- Perle saphir -->
  <circle cx="130" cy="170" r="24" fill="url(#sapphire)" stroke="url(#gold)" stroke-width="4"/>
  <circle cx="121" cy="160" r="7" fill="white" opacity="0.72"/>
</svg>